<?xml version="1.0" encoding="UTF-8"?>
<svg viewBox="0 0 640 480" xmlns="http://www.w3.org/2000/svg">
 <g stroke="#000">
  <path d="m344.18 140.49c-29.26 0.19601-57.457 9.342-86.177 12.999-11.987 1.527-24.341 1.901-36.348 0.482-15.964-1.888-31.42-6.901-47.374-9.148-14.257-2.007-28.693-4.104-43.04-4.188-25.072-0.148-49.321 7.702-73.9 11.94 0 7.19-1.461 16.418 2.214 21.472 3.791 5.212 10.185 9.979 11.844 17.042 3.933 16.752 9.517 33.172 16.657 48.914 3.47 7.65 10.019 12.984 17.332 16.658 17.61 8.847 38.453 10.148 57.772 7.366 27.512-3.962 42.438-24.605 53.825-48.192 4.262-9.588 4.738-20.653 10.351-29.416 3.334-5.204 11.076-3.014 16.609-3.033 5.533-0.018997 10.223 9.184 11.94 15.31 6.077 21.679 16.21 44.68 36.348 56.039 30.073 16.963 77.45 13.79 96.962-16.802 7.636-11.973 9.745-26.5 13.576-40.055 2.332-8.253 4.416-18.091 12.71-22.628 3.347-1.831 0.99799-9.137 1.492-13.384 0.539-4.627 1.577-8.72-5.007-9.628-11.483-1.586-22.622-6.408-34.374-8.04-11.137-1.547-22.049-3.783-33.412-3.708zm-193.44 7.703c8.306-0.052002 16.577 0.556 24.65 2.263 48.1 10.174 49.073 29.992 29.271 70.964-16.135 33.386-49.56 41.751-83.24 33.748-15.526-3.688-26.142-14.526-31.149-29.367-5.285-15.664-9.282-32.306-8.377-48.77 1.212-22.046 26.148-25.144 44.003-27.153 8.193-0.92099 16.537-1.632 24.842-1.685zm175.63 0c8.306 0.053009 16.649 0.76401 24.842 1.685 17.855 2.009 42.792 5.107 44.003 27.153 0.905 16.464-3.092 33.106-8.377 48.77-5.007 14.841-15.623 25.679-31.149 29.367-33.679 8.003-67.104-0.362-83.24-33.748-19.802-40.972-18.829-60.79 29.272-70.964 8.073-1.707 16.343-2.315 24.649-2.263z"/>
  <path d="m125.89 149.89c16.386-1.843 33.343-2.84 49.489 0.575 48.1 10.174 49.07 29.994 29.269 70.966-16.136 33.386-49.543 41.753-83.223 33.751-15.526-3.689-26.148-14.565-31.155-29.406-5.285-15.664-9.304-32.297-8.399-48.76 1.211-22.047 26.164-25.118 44.019-27.126z" opacity=".85"/>
  <path d="m351.2 149.89c-16.387-1.843-33.343-2.84-49.49 0.575-48.1 10.174-49.07 29.994-29.268 70.966 16.135 33.386 49.543 41.753 83.222 33.751 15.526-3.689 26.149-14.565 31.156-29.406 5.284-15.664 9.304-32.297 8.399-48.76-1.212-22.047-26.164-25.118-44.019-27.126z" opacity=".85"/>
 </g>
</svg>
