<?xml version='1.0' encoding='utf-8'?>
<svg xmlns="http://www.w3.org/2000/svg" width="100%" height="100%" viewBox="0 0 800 600" version="1.1" style="fill-rule:evenodd;clip-rule:evenodd;stroke-linejoin:round;stroke-miterlimit:2;"> <g id="sunglass" transform="matrix(3.69178,0,0,3.69178,-86.8624,-322.316)"> <g id="Left"> <g transform="matrix(1.14935,0,0,1.13423,-41.3299,52.3402)"> <path d="M104.931,77.584C114.159,68.233 125.945,69.749 132.95,76.187C139.955,82.625 139.955,95.502 132.95,108.379C128.047,118.037 115.438,127.694 104.931,134.132C94.424,127.694 81.816,118.037 76.913,108.379C69.908,95.502 69.908,82.625 76.913,76.187C83.917,69.749 95.704,68.233 104.931,77.584Z" style="fill:rgb(238,48,147);"/> </g> <g transform="matrix(-0.753252,0.657732,0.908285,1.04019,-117.57,-89.4409)"> <rect x="13.455" y="204.477" width="7.951" height="51.132" style="fill:rgb(225,187,216);"/> </g> <g transform="matrix(-0.473963,0.413859,0.915327,1.04826,-133.614,-78.6958)"> <rect x="13.455" y="204.477" width="7.951" height="51.132" style="fill:rgb(225,187,216);"/> </g> <g transform="matrix(1.14935,0,0,1.13423,-41.3299,52.3402)"> <path d="M119.91,68.859C127.505,68.953 135.131,73.161 138.334,80.176C142.646,89.619 139.31,100.984 134.784,109.371C134.138,110.627 133.988,110.849 133.568,111.53C127.219,121.838 116.786,129.269 106.508,135.626C106.226,135.8 105.135,136.732 102.85,135.313C92.334,128.716 81.727,121.122 75.721,110.562C68.725,98.262 65.508,81.771 77.422,73.063C85.395,67.236 97.02,67.843 104.863,74.646C104.863,74.646 112.198,68.812 119.91,68.859ZM119.664,73.071C114.694,73.102 109.934,75.513 106.397,79.077C106.397,79.077 104.593,80.095 102.658,78.294C95.597,71.801 83.619,70.732 76.956,79.21C71.249,86.473 73.892,98.393 78.746,107.387C79.337,108.536 79.454,108.703 79.821,109.3C85.671,118.798 95.224,125.574 104.931,131.664C115.193,125.226 125.818,117.696 131.116,107.387C136.547,97.325 139.424,84.169 130.8,77.092C127.685,74.537 123.733,73.07 119.664,73.071Z" style="fill:rgb(37,50,88);"/> </g> </g> <g id="Right" transform="matrix(1,0,0,1,105.275,0)"> <g transform="matrix(1.14935,0,0,1.13423,-41.3299,52.3402)"> <path d="M104.931,77.584C114.159,68.233 125.945,69.749 132.95,76.187C139.955,82.625 139.955,95.502 132.95,108.379C128.047,118.037 115.438,127.694 104.931,134.132C94.424,127.694 81.816,118.037 76.913,108.379C69.908,95.502 69.908,82.625 76.913,76.187C83.917,69.749 95.704,68.233 104.931,77.584Z" style="fill:rgb(238,48,147);"/> </g> <g transform="matrix(-0.753252,0.657732,0.908285,1.04019,-117.57,-89.4409)"> <rect x="13.455" y="204.477" width="7.951" height="51.132" style="fill:rgb(225,187,216);"/> </g> <g transform="matrix(-0.473963,0.413859,0.90354,1.03476,-131.204,-75.9357)"> <rect x="13.455" y="204.477" width="7.951" height="51.132" style="fill:rgb(225,187,216);"/> </g> <g transform="matrix(1.14935,0,0,1.13423,-41.3299,52.3402)"> <path d="M119.91,68.859C127.505,68.953 135.131,73.161 138.334,80.176C142.646,89.619 139.31,100.984 134.784,109.371C134.138,110.627 133.988,110.849 133.568,111.53C127.219,121.838 116.786,129.269 106.508,135.626C106.226,135.8 105.135,136.732 102.85,135.313C92.334,128.716 81.727,121.122 75.721,110.562C68.725,98.262 65.508,81.771 77.422,73.063C85.395,67.236 97.02,67.843 104.863,74.646C104.863,74.646 112.198,68.812 119.91,68.859ZM119.664,73.071C114.694,73.102 109.934,75.513 106.397,79.077C106.397,79.077 104.593,80.095 102.658,78.294C95.597,71.801 83.619,70.732 76.956,79.21C71.249,86.473 73.892,98.393 78.746,107.387C79.337,108.536 79.454,108.703 79.821,109.3C85.671,118.798 95.224,125.574 104.931,131.664C115.193,125.226 125.818,117.696 131.116,107.387C136.547,97.325 139.424,84.169 130.8,77.092C127.685,74.537 123.733,73.07 119.664,73.071Z" style="fill:rgb(37,50,88);"/> </g> </g> <g transform="matrix(1.04337,0,0,1,11.7701,-91.752)"> <path d="M115.331,234.151C119.899,234.212 124.349,235.473 128.475,237.613C130.712,238.773 130.022,243.705 126.071,241.704C119.031,238.196 110.726,238.237 103.61,241.987C103.61,241.987 102.457,242.445 101.585,242.007C99.946,241.184 99.885,238.564 102.167,237.4C106.154,235.399 110.493,234.2 114.903,234.15C115.118,234.15 115.117,234.15 115.331,234.151Z" style="fill:rgb(37,50,88);"/> </g> </g> </svg>